<svg width="500" height="300" viewBox="0 0 500 300" fill="none" xmlns="http://www.w3.org/2000/svg">
<rect width="500" height="300" rx="12" fill="#f8fafc"/>
<rect x="20" y="20" width="460" height="260" rx="8" fill="white"/>
<rect x="40" y="40" width="420" height="30" rx="4" fill="#e2e8f0"/>
<rect x="50" y="48" width="120" height="14" rx="2" fill="#10b981"/>
<circle cx="250" cy="150" r="80" fill="none" stroke="#e5e7eb" stroke-width="8"/>
<circle cx="250" cy="150" r="80" fill="none" stroke="#10b981" stroke-width="8" stroke-dasharray="200 300" transform="rotate(-90 250 150)"/>
<text x="250" y="140" text-anchor="middle" fill="#10b981" font-size="18" font-weight="bold">Save</text>
<text x="250" y="165" text-anchor="middle" fill="#10b981" font-size="32" font-weight="bold">10%</text>
<text x="250" y="185" text-anchor="middle" fill="#10b981" font-size="14">on AWS</text>
<rect x="80" y="240" width="60" height="30" rx="4" fill="#f59e0b"/>
<text x="110" y="258" text-anchor="middle" fill="white" font-size="12" font-weight="bold">EC2</text>
<rect x="160" y="240" width="60" height="30" rx="4" fill="#3b82f6"/>
<text x="190" y="258" text-anchor="middle" fill="white" font-size="12" font-weight="bold">S3</text>
<rect x="240" y="240" width="80" height="30" rx="4" fill="#8b5cf6"/>
<text x="280" y="258" text-anchor="middle" fill="white" font-size="12" font-weight="bold">CloudFront</text>
<rect x="340" y="240" width="60" height="30" rx="4" fill="#ef4444"/>
<text x="370" y="258" text-anchor="middle" fill="white" font-size="12" font-weight="bold">RDS</text>
</svg>