<svg width="500" height="300" viewBox="0 0 500 300" fill="none" xmlns="http://www.w3.org/2000/svg">
<rect width="500" height="300" rx="12" fill="#f8fafc"/>
<rect x="20" y="20" width="460" height="260" rx="8" fill="white"/>
<rect x="40" y="40" width="420" height="30" rx="4" fill="#e2e8f0"/>
<rect x="50" y="48" width="120" height="14" rx="2" fill="#8b5cf6"/>
<rect x="80" y="100" width="100" height="60" rx="8" fill="#dbeafe"/>
<text x="130" y="125" text-anchor="middle" fill="#2563eb" font-size="14" font-weight="bold">AWS</text>
<text x="130" y="140" text-anchor="middle" fill="#2563eb" font-size="12">15 资源</text>
<rect x="200" y="100" width="100" height="60" rx="8" fill="#dcfce7"/>
<text x="250" y="125" text-anchor="middle" fill="#10b981" font-size="14" font-weight="bold">Azure</text>
<text x="250" y="140" text-anchor="middle" fill="#10b981" font-size="12">8 资源</text>
<rect x="320" y="100" width="100" height="60" rx="8" fill="#fef3c7"/>
<text x="370" y="125" text-anchor="middle" fill="#f59e0b" font-size="14" font-weight="bold">GCP</text>
<text x="370" y="140" text-anchor="middle" fill="#f59e0b" font-size="12">5 资源</text>
<rect x="150" y="200" width="200" height="60" rx="8" fill="#f3e8ff"/>
<text x="250" y="225" text-anchor="middle" fill="#8b5cf6" font-size="16" font-weight="bold">统一监控平台</text>
<text x="250" y="245" text-anchor="middle" fill="#8b5cf6" font-size="12">CloudVisor</text>
<path d="M130 160L200 200" stroke="#6b7280" stroke-width="2" stroke-dasharray="5,5"/>
<path d="M250 160L250 200" stroke="#6b7280" stroke-width="2" stroke-dasharray="5,5"/>
<path d="M370 160L300 200" stroke="#6b7280" stroke-width="2" stroke-dasharray="5,5"/>
</svg>