<svg width="500" height="300" viewBox="0 0 500 300" fill="none" xmlns="http://www.w3.org/2000/svg">
<rect width="500" height="300" rx="12" fill="#f8fafc"/>
<rect x="20" y="20" width="460" height="260" rx="8" fill="white"/>
<rect x="40" y="40" width="420" height="30" rx="4" fill="#e2e8f0"/>
<rect x="50" y="48" width="140" height="14" rx="2" fill="#2563eb"/>
<circle cx="120" cy="120" r="30" fill="#dbeafe"/>
<circle cx="120" cy="120" r="20" fill="#2563eb"/>
<path d="M110 115L115 120L130 105" stroke="white" stroke-width="3" stroke-linecap="round" stroke-linejoin="round" fill="none"/>
<text x="120" y="170" text-anchor="middle" fill="#2563eb" font-size="14" font-weight="bold">AWS Certified</text>
<text x="120" y="185" text-anchor="middle" fill="#6b7280" font-size="12">Solutions Architect</text>
<rect x="200" y="90" width="260" height="140" rx="8" fill="#f1f5f9"/>
<rect x="220" y="110" width="220" height="20" rx="4" fill="#dcfce7"/>
<text x="230" y="123" fill="#10b981" font-size="12">✓ 24/7 Technical Support</text>
<rect x="220" y="140" width="220" height="20" rx="4" fill="#dcfce7"/>
<text x="230" y="153" fill="#10b981" font-size="12">✓ Dedicated Success Manager</text>
<rect x="220" y="170" width="220" height="20" rx="4" fill="#dcfce7"/>
<text x="230" y="183" fill="#10b981" font-size="12">✓ Architecture Reviews</text>
<rect x="220" y="200" width="220" height="20" rx="4" fill="#dcfce7"/>
<text x="230" y="213" fill="#10b981" font-size="12">✓ Best Practices Guidance</text>
</svg>