<svg width="500" height="300" viewBox="0 0 500 300" fill="none" xmlns="http://www.w3.org/2000/svg">
<rect width="500" height="300" rx="12" fill="#f8fafc"/>
<rect x="20" y="20" width="460" height="260" rx="8" fill="white"/>
<rect x="40" y="40" width="420" height="30" rx="4" fill="#e2e8f0"/>
<rect x="50" y="48" width="120" height="14" rx="2" fill="#f59e0b"/>
<rect x="80" y="90" width="150" height="180" rx="8" fill="#f1f5f9"/>
<rect x="100" y="110" width="110" height="15" rx="4" fill="#3b82f6"/>
<rect x="100" y="135" width="80" height="15" rx="4" fill="#10b981"/>
<rect x="100" y="160" width="95" height="15" rx="4" fill="#f59e0b"/>
<rect x="100" y="185" width="70" height="15" rx="4" fill="#ef4444"/>
<rect x="100" y="210" width="60" height="15" rx="4" fill="#8b5cf6"/>
<text x="100" y="245" fill="#6b7280" font-size="10">Current Costs</text>
<rect x="270" y="90" width="150" height="180" rx="8" fill="#dcfce7"/>
<rect x="290" y="110" width="80" height="15" rx="4" fill="#3b82f6"/>
<rect x="290" y="135" width="60" height="15" rx="4" fill="#10b981"/>
<rect x="290" y="160" width="70" height="15" rx="4" fill="#f59e0b"/>
<rect x="290" y="185" width="50" height="15" rx="4" fill="#ef4444"/>
<rect x="290" y="210" width="45" height="15" rx="4" fill="#8b5cf6"/>
<text x="290" y="245" fill="#10b981" font-size="10">After Optimization</text>
<path d="M230 150L270 150" stroke="#10b981" stroke-width="3" marker-end="url(#arrowhead)"/>
<text x="250" y="145" text-anchor="middle" fill="#10b981" font-size="12" font-weight="bold">Save 40%</text>
<defs>
<marker id="arrowhead" markerWidth="10" markerHeight="7" refX="9" refY="3.5" orient="auto">
<polygon points="0 0, 10 3.5, 0 7" fill="#10b981"/>
</marker>
</defs>
</svg>