<svg width="500" height="300" viewBox="0 0 500 300" fill="none" xmlns="http://www.w3.org/2000/svg">
<rect width="500" height="300" rx="12" fill="#f8fafc"/>
<rect x="20" y="20" width="460" height="260" rx="8" fill="white"/>
<rect x="40" y="40" width="420" height="30" rx="4" fill="#e2e8f0"/>
<rect x="50" y="48" width="100" height="14" rx="2" fill="#10b981"/>
<circle cx="150" cy="150" r="80" fill="none" stroke="#e5e7eb" stroke-width="8"/>
<circle cx="150" cy="150" r="80" fill="none" stroke="#10b981" stroke-width="8" stroke-dasharray="150 350" transform="rotate(-90 150 150)"/>
<text x="150" y="145" text-anchor="middle" fill="#10b981" font-size="20" font-weight="bold">节省</text>
<text x="150" y="165" text-anchor="middle" fill="#10b981" font-size="24" font-weight="bold">30%</text>
<rect x="280" y="90" width="180" height="40" rx="4" fill="#dcfce7"/>
<text x="300" y="110" fill="#10b981" font-size="14">本月预算: ¥10,000</text>
<text x="300" y="125" fill="#10b981" font-size="14">已使用: ¥7,000</text>
<rect x="280" y="150" width="180" height="120" rx="4" fill="#f1f5f9"/>
<rect x="300" y="170" width="20" height="60" fill="#3b82f6"/>
<rect x="330" y="180" width="20" height="50" fill="#10b981"/>
<rect x="360" y="190" width="20" height="40" fill="#f59e0b"/>
<rect x="390" y="200" width="20" height="30" fill="#ef4444"/>
<text x="300" y="250" fill="#6b7280" font-size="12">计算</text>
<text x="330" y="250" fill="#6b7280" font-size="12">存储</text>
<text x="360" y="250" fill="#6b7280" font-size="12">网络</text>
<text x="390" y="250" fill="#6b7280" font-size="12">其他</text>
</svg>