<svg width="600" height="400" viewBox="0 0 600 400" fill="none" xmlns="http://www.w3.org/2000/svg">
<rect width="600" height="400" rx="12" fill="#f8fafc"/>
<rect x="20" y="20" width="560" height="60" rx="8" fill="white"/>
<rect x="40" y="35" width="120" height="30" rx="4" fill="#e2e8f0"/>
<rect x="180" y="35" width="80" height="30" rx="4" fill="#e2e8f0"/>
<rect x="280" y="35" width="80" height="30" rx="4" fill="#e2e8f0"/>
<rect x="20" y="100" width="270" height="280" rx="8" fill="white"/>
<rect x="40" y="120" width="230" height="20" rx="4" fill="#2563eb"/>
<rect x="40" y="150" width="230" height="200" rx="4" fill="#f1f5f9"/>
<path d="M60 320L100 280L140 300L180 260L220 240L250 220" stroke="#2563eb" stroke-width="3" fill="none"/>
<rect x="310" y="100" width="270" height="130" rx="8" fill="white"/>
<rect x="330" y="120" width="230" height="20" rx="4" fill="#10b981"/>
<circle cx="380" cy="180" r="40" fill="#e2e8f0"/>
<circle cx="380" cy="180" r="30" fill="#10b981"/>
<rect x="310" y="250" width="270" height="130" rx="8" fill="white"/>
<rect x="330" y="270" width="100" height="15" rx="4" fill="#f59e0b"/>
<rect x="330" y="295" width="150" height="15" rx="4" fill="#ef4444"/>
<rect x="330" y="320" width="80" height="15" rx="4" fill="#8b5cf6"/>
<rect x="330" y="345" width="120" height="15" rx="4" fill="#06b6d4"/>
</svg>