<svg width="500" height="300" viewBox="0 0 500 300" fill="none" xmlns="http://www.w3.org/2000/svg">
<rect width="500" height="300" rx="12" fill="#f8fafc"/>
<rect x="20" y="20" width="460" height="260" rx="8" fill="white"/>
<rect x="40" y="40" width="420" height="30" rx="4" fill="#e2e8f0"/>
<rect x="50" y="48" width="80" height="14" rx="2" fill="#2563eb"/>
<rect x="40" y="90" width="200" height="180" rx="4" fill="#f1f5f9"/>
<path d="M60 240L90 200L120 220L150 180L180 160L210 140" stroke="#2563eb" stroke-width="3" fill="none"/>
<circle cx="60" cy="240" r="4" fill="#2563eb"/>
<circle cx="90" cy="200" r="4" fill="#2563eb"/>
<circle cx="120" cy="220" r="4" fill="#2563eb"/>
<circle cx="150" cy="180" r="4" fill="#2563eb"/>
<circle cx="180" cy="160" r="4" fill="#2563eb"/>
<circle cx="210" cy="140" r="4" fill="#2563eb"/>
<rect x="260" y="90" width="200" height="80" rx="4" fill="#dcfce7"/>
<text x="280" y="115" fill="#10b981" font-size="14" font-weight="bold">CPU使用率</text>
<text x="280" y="135" fill="#10b981" font-size="24" font-weight="bold">45%</text>
<text x="280" y="155" fill="#6b7280" font-size="12">正常范围</text>
<rect x="260" y="190" width="200" height="80" rx="4" fill="#fef3c7"/>
<text x="280" y="215" fill="#f59e0b" font-size="14" font-weight="bold">内存使用率</text>
<text x="280" y="235" fill="#f59e0b" font-size="24" font-weight="bold">78%</text>
<text x="280" y="255" fill="#6b7280" font-size="12">需要关注</text>
</svg>