<svg width="40" height="40" viewBox="0 0 40 40" fill="none" xmlns="http://www.w3.org/2000/svg">
<circle cx="20" cy="20" r="18" fill="#dbeafe"/>
<path d="M25.05 31C29.05 31 32.05 28 32.05 24V22C32.05 21.45 31.6 21 31.05 21C30.5 21 30.05 21.45 30.05 22V24C30.05 26.9 27.95 29 25.05 29C22.15 29 20.05 26.9 20.05 24V22C20.05 21.45 19.6 21 19.05 21C18.5 21 18.05 21.45 18.05 22V24C18.05 28 21.05 31 25.05 31Z" fill="#2563eb"/>
<path d="M13 15.5C13 14.12 14.12 13 15.5 13H17.25C17.66 13 18 13.34 18 13.75V18.25C18 18.66 17.66 19 17.25 19H16C14.34 19 13 17.66 13 16V15.5Z" fill="#2563eb"/>
</svg>