<svg width="500" height="300" viewBox="0 0 500 300" fill="none" xmlns="http://www.w3.org/2000/svg">
<rect width="500" height="300" rx="12" fill="#f8fafc"/>
<rect x="20" y="20" width="460" height="260" rx="8" fill="white"/>
<rect x="40" y="40" width="420" height="30" rx="4" fill="#e2e8f0"/>
<rect x="50" y="48" width="100" height="14" rx="2" fill="#ef4444"/>
<path d="M150 90L200 140L150 190L100 140L150 90Z" fill="#dcfce7" stroke="#10b981" stroke-width="2"/>
<path d="M140 130L148 138L165 121" stroke="#10b981" stroke-width="3" stroke-linecap="round" stroke-linejoin="round" fill="none"/>
<rect x="280" y="90" width="180" height="180" rx="8" fill="#f1f5f9"/>
<rect x="300" y="110" width="140" height="20" rx="4" fill="#dcfce7"/>
<text x="310" y="123" fill="#10b981" font-size="12">✓ SSL证书有效</text>
<rect x="300" y="140" width="140" height="20" rx="4" fill="#dcfce7"/>
<text x="310" y="153" fill="#10b981" font-size="12">✓ 防火墙配置正确</text>
<rect x="300" y="170" width="140" height="20" rx="4" fill="#fee2e2"/>
<text x="310" y="183" fill="#ef4444" font-size="12">⚠ 发现弱密码</text>
<rect x="300" y="200" width="140" height="20" rx="4" fill="#dcfce7"/>
<text x="310" y="213" fill="#10b981" font-size="12">✓ 访问控制正常</text>
<rect x="300" y="230" width="140" height="20" rx="4" fill="#fef3c7"/>
<text x="310" y="243" fill="#f59e0b" font-size="12">⚠ 需要更新补丁</text>
<text x="150" y="220" text-anchor="middle" fill="#10b981" font-size="14" font-weight="bold">安全评分</text>
<text x="150" y="240" text-anchor="middle" fill="#10b981" font-size="24" font-weight="bold">85/100</text>
</svg>